<?xml version="1.0" standalone="no"?>
<!DOCTYPE svg PUBLIC "-//W3C//DTD SVG 20010904//EN"
 "http://www.w3.org/TR/2001/REC-SVG-20010904/DTD/svg10.dtd">
<svg version="1.0" xmlns="http://www.w3.org/2000/svg"
 width="1229.000000pt" height="1048.000000pt" viewBox="0 0 1229.000000 1048.000000"
 preserveAspectRatio="xMidYMid meet">
<metadata>
Created by potrace 1.16, written by Peter Selinger 2001-2019
</metadata>
<g transform="translate(0.000000,1048.000000) scale(0.100000,-0.100000)"
fill="#000000" stroke="none">
<path d="M430 10325 c-108 -34 -209 -137 -245 -250 -26 -83 -18 -201 19 -281
35 -77 112 -154 191 -191 l60 -28 660 -3 660 -3 659 -3112 c363 -1712 668
-3141 679 -3177 46 -154 146 -287 256 -339 l56 -26 3280 0 3280 0 58 23 c76
31 169 117 210 196 30 57 32 67 32 166 0 99 -2 109 -32 166 -41 79 -134 165
-210 196 l-58 23 -3085 5 -3085 5 -77 360 c-42 198 -77 368 -78 377 0 17 174
18 3423 20 l3422 3 65 31 c76 36 151 106 185 175 17 33 166 654 481 2001 433
1856 456 1957 452 2030 -4 60 -11 90 -36 140 -38 78 -119 160 -192 196 l-55
27 -4362 3 -4361 2 -10 48 c-6 26 -54 252 -107 502 -73 346 -103 470 -126 516
-35 74 -108 145 -187 182 l-57 27 -860 2 c-714 1 -868 -1 -905 -12z m10368
-2117 c-10 -46 -171 -735 -357 -1533 l-338 -1450 -3304 -3 -3305 -2 -294 1382
c-161 761 -308 1452 -325 1536 l-32 152 3987 0 3987 0 -19 -82z"/>
<path d="M4546 2644 c-514 -93 -941 -523 -1031 -1038 -19 -113 -20 -337 0
-448 91 -525 517 -951 1042 -1043 114 -19 332 -19 446 0 525 92 951 518 1042
1043 20 111 19 335 0 448 -91 521 -519 948 -1043 1039 -107 19 -350 18 -456
-1z m314 -764 c267 -42 461 -306 420 -573 -33 -219 -209 -395 -427 -428 -272
-40 -531 153 -573 429 -33 214 84 433 282 527 104 49 188 62 298 45z"/>
<path d="M8386 2644 c-514 -93 -941 -523 -1031 -1038 -19 -113 -20 -337 0
-448 91 -525 517 -951 1042 -1043 114 -19 332 -19 446 0 525 92 951 518 1042
1043 20 111 19 335 0 448 -91 521 -519 948 -1043 1039 -107 19 -350 18 -456
-1z m314 -764 c267 -42 461 -306 420 -573 -33 -219 -209 -395 -427 -428 -272
-40 -531 153 -573 429 -33 214 84 433 282 527 104 49 188 62 298 45z"/>
</g>
</svg>
