<?xml version="1.0" standalone="no"?>
<!DOCTYPE svg PUBLIC "-//W3C//DTD SVG 20010904//EN"
 "http://www.w3.org/TR/2001/REC-SVG-20010904/DTD/svg10.dtd">
<svg version="1.0" xmlns="http://www.w3.org/2000/svg"
 width="1280.000000pt" height="1028.000000pt" viewBox="0 0 1280.000000 1028.000000"
 preserveAspectRatio="xMidYMid meet">
<metadata>
Created by potrace 1.16, written by Peter Selinger 2001-2019
</metadata>
<g transform="translate(0.000000,1028.000000) scale(0.100000,-0.100000)"
fill="#000000" stroke="none">
<path d="M7000 10074 c-1367 -64 -2533 -435 -3470 -1102 -591 -421 -1016 -900
-1285 -1447 -148 -301 -237 -579 -286 -896 -20 -123 -23 -184 -23 -419 0 -237
3 -295 22 -419 100 -634 401 -1232 878 -1741 405 -432 833 -742 1409 -1025
902 -441 1952 -675 3030 -675 483 0 980 44 1362 121 l53 10 1272 -733 c700
-404 1288 -740 1307 -746 83 -29 209 -3 283 58 20 17 50 58 67 92 56 112 67
62 -269 1235 -165 576 -299 1050 -298 1054 2 3 57 47 123 96 342 258 646 570
892 916 284 398 471 859 549 1347 22 140 30 531 15 687 -71 708 -419 1399
-997 1977 -896 896 -2246 1466 -3774 1591 -179 15 -706 26 -860 19z m610 -589
c600 -20 1265 -145 1844 -345 1478 -512 2478 -1555 2597 -2709 7 -69 10 -182
6 -285 -28 -855 -554 -1679 -1457 -2283 -109 -73 -145 -112 -170 -188 -32 -96
-28 -117 219 -979 127 -445 229 -811 227 -813 -2 -2 -449 255 -993 570 -544
316 -1005 579 -1024 585 -78 24 -114 23 -349 -17 -351 -60 -518 -79 -805 -92
-307 -14 -778 -7 -1015 15 -1205 114 -2221 496 -3047 1146 -134 105 -432 402
-536 532 -529 664 -710 1413 -522 2154 45 175 91 296 185 489 536 1099 1908
1935 3550 2164 321 45 768 73 1030 65 58 -2 175 -6 260 -9z"/>
<path d="M5025 6834 c-11 -2 -45 -9 -75 -15 -168 -33 -342 -170 -418 -330 -22
-46 -45 -106 -51 -132 -72 -304 65 -602 341 -742 304 -153 693 -28 851 272
223 425 -61 926 -537 948 -50 2 -100 2 -111 -1z"/>
<path d="M7266 6824 c-237 -51 -434 -246 -490 -484 -18 -76 -21 -217 -5 -292
15 -72 79 -202 129 -262 136 -163 321 -243 535 -233 263 12 478 172 573 425
33 90 42 275 18 372 -44 177 -176 341 -337 418 -141 68 -280 86 -423 56z"/>
<path d="M9615 6834 c-153 -24 -306 -111 -406 -231 -56 -68 -84 -119 -113
-205 -122 -362 98 -751 471 -834 278 -62 575 74 706 323 223 425 -62 928 -537
948 -50 2 -104 1 -121 -1z"/>
<path d="M1660 8080 c-559 -429 -942 -876 -1195 -1395 -215 -440 -305 -826
-305 -1310 0 -310 33 -551 115 -834 194 -675 680 -1332 1375 -1861 52 -39 96
-75 98 -79 1 -4 -130 -481 -293 -1061 -162 -579 -298 -1070 -301 -1090 -8 -50
20 -152 55 -204 38 -55 96 -93 173 -112 81 -21 150 -14 224 24 32 17 609 345
1281 730 l1222 699 108 -18 c161 -27 464 -67 657 -87 218 -21 1056 -24 1261
-4 485 48 838 107 1185 198 119 32 150 59 150 132 0 55 -15 87 -52 115 -24 18
-50 20 -310 28 -411 11 -730 41 -1081 98 -158 26 -184 28 -317 21 -396 -20
-1086 38 -1527 129 -114 23 -150 27 -189 20 -37 -7 -286 -147 -1024 -576 -536
-311 -985 -573 -998 -581 -14 -9 -22 -10 -22 -3 0 6 101 368 224 804 123 435
227 811 231 834 10 62 -11 146 -49 196 -18 24 -82 77 -148 122 -680 467 -1147
1049 -1342 1670 -121 387 -129 851 -22 1259 90 341 268 685 510 988 110 136
276 310 388 405 187 158 286 344 295 553 5 101 4 107 -24 160 -38 72 -88 101
-182 107 l-66 3 -105 -80z"/>
</g>
</svg>
