<?xml version="1.0" standalone="no"?>
<!DOCTYPE svg PUBLIC "-//W3C//DTD SVG 20010904//EN"
 "http://www.w3.org/TR/2001/REC-SVG-20010904/DTD/svg10.dtd">
<svg version="1.0" xmlns="http://www.w3.org/2000/svg"
 width="1233.000000pt" height="1083.000000pt" viewBox="0 0 1233.000000 1083.000000"
 preserveAspectRatio="xMidYMid meet">
<metadata>
Created by potrace 1.16, written by Peter Selinger 2001-2019
</metadata>
<g transform="translate(0.000000,1083.000000) scale(0.100000,-0.100000)"
fill="#000000" stroke="none">
<path d="M3320 10654 c-19 -2 -80 -9 -135 -15 -1310 -140 -2413 -1042 -2888
-2359 -86 -240 -143 -478 -173 -731 -22 -180 -22 -530 0 -709 75 -624 309
-1171 714 -1670 103 -127 4725 -4757 4822 -4831 121 -91 248 -146 394 -170
104 -16 299 -7 400 20 99 26 245 95 338 160 97 67 4585 4556 4710 4711 437
540 673 1088 765 1776 21 164 24 627 5 784 -45 356 -129 676 -257 974 -317
742 -881 1337 -1615 1705 -355 178 -688 280 -1100 338 -177 25 -681 25 -860 0
-586 -82 -1091 -280 -1554 -609 -157 -112 -268 -209 -468 -407 l-188 -185
-192 190 c-217 213 -349 323 -553 459 -447 297 -922 475 -1465 551 -109 15
-614 28 -700 18z m624 -784 c476 -71 925 -268 1316 -578 52 -42 239 -218 415
-393 382 -378 376 -374 540 -374 173 0 170 -2 585 409 190 189 383 372 430
408 366 283 780 458 1250 529 207 32 543 32 750 0 328 -50 590 -135 860 -277
227 -120 411 -255 604 -444 474 -463 740 -1044 787 -1721 35 -515 -94 -1059
-360 -1507 -170 -289 -43 -156 -2560 -2675 l-2306 -2307 -50 0 -50 0 -2318
2317 c-1275 1275 -2355 2362 -2400 2416 -411 492 -616 1139 -556 1753 48 494
290 1072 620 1481 136 168 341 363 514 490 164 119 435 263 639 338 195 72
484 135 710 155 138 13 423 3 580 -20z"/>
</g>
</svg>
