<svg xmlns:dc="http://purl.org/dc/elements/1.1/" xmlns:cc="http://creativecommons.org/ns#" xmlns:rdf="http://www.w3.org/1999/02/22-rdf-syntax-ns#" xmlns:svg="http://www.w3.org/2000/svg" xmlns="http://www.w3.org/2000/svg" xmlns:sodipodi="http://sodipodi.sourceforge.net/DTD/sodipodi-0.dtd" xmlns:inkscape="http://www.inkscape.org/namespaces/inkscape" viewBox="0 0 25.399999 31.75000125" version="1.1" x="0px" y="0px"><g transform="translate(0,-271.59998)"><path style="color:#000000;font-style:normal;font-variant:normal;font-weight:normal;font-stretch:normal;font-size:medium;line-height:normal;font-family:sans-serif;font-variant-ligatures:normal;font-variant-position:normal;font-variant-caps:normal;font-variant-numeric:normal;font-variant-alternates:normal;font-feature-settings:normal;text-indent:0;text-align:start;text-decoration:none;text-decoration-line:none;text-decoration-style:solid;text-decoration-color:#000000;letter-spacing:normal;word-spacing:normal;text-transform:none;writing-mode:lr-tb;direction:ltr;text-orientation:mixed;dominant-baseline:auto;baseline-shift:baseline;text-anchor:start;white-space:normal;shape-padding:0;clip-rule:nonzero;display:inline;overflow:visible;visibility:visible;opacity:1;isolation:auto;mix-blend-mode:normal;color-interpolation:sRGB;color-interpolation-filters:linearRGB;solid-color:#000000;solid-opacity:1;vector-effect:none;fill:#000000;fill-opacity:1;fill-rule:nonzero;stroke:none;stroke-width:1.05833328;stroke-linecap:butt;stroke-linejoin:round;stroke-miterlimit:4;stroke-dasharray:none;stroke-dashoffset:0;stroke-opacity:1;paint-order:stroke fill markers;color-rendering:auto;image-rendering:auto;shape-rendering:auto;text-rendering:auto;enable-background:accumulate" d="m 12.699219,272.6582 c -4.6697433,0 -8.4667968,3.79706 -8.4667971,8.4668 -2e-7,3.39549 2.0562751,7.01511 4.0683593,9.83203 2.0120838,2.81692 4.0253908,4.83008 4.0253908,4.83008 a 0.52921956,0.52921956 0 0 0 0.748047,0 c 0,0 2.013306,-2.01316 4.02539,-4.83008 2.012084,-2.81692 4.066407,-6.43654 4.066407,-9.83203 0,-4.66974 -3.797054,-8.4668 -8.466797,-8.4668 z m 0,1.0586 c 4.097777,0 7.408203,3.31042 7.408203,7.4082 0,2.95452 -1.912475,6.47747 -3.869141,9.2168 -1.769763,2.47767 -3.217269,3.91965 -3.539062,4.24804 -0.322375,-0.329 -1.767746,-1.77093 -3.5371096,-4.24804 -1.9566658,-2.73933 -3.871094,-6.26228 -3.8710938,-9.2168 3e-7,-4.09778 3.3104258,-7.4082 7.4082034,-7.4082 z"/><path style="color:#000000;font-style:normal;font-variant:normal;font-weight:normal;font-stretch:normal;font-size:medium;line-height:normal;font-family:sans-serif;font-variant-ligatures:normal;font-variant-position:normal;font-variant-caps:normal;font-variant-numeric:normal;font-variant-alternates:normal;font-feature-settings:normal;text-indent:0;text-align:start;text-decoration:none;text-decoration-line:none;text-decoration-style:solid;text-decoration-color:#000000;letter-spacing:normal;word-spacing:normal;text-transform:none;writing-mode:lr-tb;direction:ltr;text-orientation:mixed;dominant-baseline:auto;baseline-shift:baseline;text-anchor:start;white-space:normal;shape-padding:0;clip-rule:nonzero;display:inline;overflow:visible;visibility:visible;opacity:1;isolation:auto;mix-blend-mode:normal;color-interpolation:sRGB;color-interpolation-filters:linearRGB;solid-color:#000000;solid-opacity:1;vector-effect:none;fill:#000000;fill-opacity:1;fill-rule:nonzero;stroke:none;stroke-width:1.05833328;stroke-linecap:butt;stroke-linejoin:round;stroke-miterlimit:4;stroke-dasharray:none;stroke-dashoffset:0;stroke-opacity:1;paint-order:stroke fill markers;color-rendering:auto;image-rendering:auto;shape-rendering:auto;text-rendering:auto;enable-background:accumulate" d="m 12.699219,277.41992 c -2.039487,0 -3.7031252,1.66559 -3.7031252,3.70508 0,2.03949 1.6636382,3.70508 3.7031252,3.70508 2.039487,0 3.705078,-1.66559 3.705078,-3.70508 0,-2.03949 -1.665591,-3.70508 -3.705078,-3.70508 z m 0,1.0586 c 1.467521,0 2.646484,1.17896 2.646484,2.64648 0,1.46752 -1.178963,2.64648 -2.646484,2.64648 -1.467521,0 -2.644532,-1.17896 -2.644531,-2.64648 0,-1.46752 1.17701,-2.64648 2.644531,-2.64648 z"/></g><text x="0" y="40.400001" fill="#000000" font-size="5px" font-weight="bold" font-family="'Helvetica Neue', Helvetica, Arial-Unicode, Arial, Sans-serif">Created by Assyifa Art</text><text x="0" y="45.400001" fill="#000000" font-size="5px" font-weight="bold" font-family="'Helvetica Neue', Helvetica, Arial-Unicode, Arial, Sans-serif">from the Noun Project</text></svg>