<?xml version="1.0" standalone="no"?>
<!DOCTYPE svg PUBLIC "-//W3C//DTD SVG 20010904//EN"
 "http://www.w3.org/TR/2001/REC-SVG-20010904/DTD/svg10.dtd">
<svg version="1.0" xmlns="http://www.w3.org/2000/svg"
 width="968.000000pt" height="956.000000pt" viewBox="0 0 968.000000 956.000000"
 preserveAspectRatio="xMidYMid meet">
<metadata>
Created by potrace 1.16, written by Peter Selinger 2001-2019
</metadata>
<g transform="translate(0.000000,956.000000) scale(0.100000,-0.100000)"
fill="#000000" stroke="none">
<path d="M3650 9303 c-560 -55 -958 -166 -1405 -393 -964 -489 -1672 -1378
-1930 -2423 -82 -333 -110 -599 -102 -972 9 -427 65 -746 198 -1130 375 -1088
1236 -1942 2334 -2314 239 -81 523 -142 800 -173 178 -19 624 -16 805 6 670
81 1299 335 1818 733 45 34 86 63 90 63 4 0 581 -573 1282 -1274 1453 -1451
1317 -1331 1500 -1331 94 0 111 3 165 28 79 37 156 114 192 191 25 54 28 72
28 161 0 177 122 40 -1331 1495 l-1283 1285 66 85 c398 514 653 1144 740 1825
27 213 25 674 -5 890 -73 546 -242 1029 -512 1470 -626 1021 -1677 1672 -2865
1774 -110 10 -502 13 -585 4z m490 -778 c438 -23 952 -189 1342 -436 252 -160
560 -432 732 -649 156 -196 313 -457 407 -675 235 -548 299 -1154 184 -1742
-51 -262 -129 -489 -256 -743 -234 -468 -580 -855 -1023 -1148 -138 -91 -424
-235 -576 -290 -497 -180 -1011 -228 -1523 -142 -928 158 -1730 759 -2142
1605 -180 369 -276 743 -293 1135 -24 538 69 988 298 1455 153 311 303 519
560 775 256 257 464 407 775 560 295 145 566 229 885 276 128 18 361 32 460
28 36 -2 112 -6 170 -9z"/>
</g>
</svg>
